PathFileType  4	(X/Y/Z) C:\Users\antoi\Documents\MyRepositories\mobilecap\ResultsAnalysis
DataRate	CameraRate	NumFrames	NumMarkers	Units	OrigDataRate	OrigDataStartFrame	OrigNumFrames
100.0	100.0	4	51	mm	100.0	943	1257
Frame#	Time	r_knee			r_shank_antsup			r_ankle			r_calc			r_5meta			r_toe			L_knee			L_shank_antsup			L_ankle			L_calc			L_5meta			L_toe			r_sh2			r_sh3			r_sh4			L_sh2			L_sh3			r_thigh1			r_thigh2			r_thigh3			r_thigh4			r_thigh5			L_thigh1			L_thigh2			L_thigh3			L_thigh4			r.ASIS			r.PSIS			L.ASIS			L.PSIS			C7			R_Shoulder			L_Shoulder			R_Sternum			L_Sternum			R_humerus			R_elbow_med			R_elbow_lat			R_forearm			R_wrist_radius			R_wrist_ulna			L_humerus			L_elbow_med			L_elbow_lat			L_forearm			L_wrist_radius			L_wrist_ulna			R_HJC			L_HJC			R_HJC_reg			L_HJC_reg			
		X1	Y1	Z1	X2	Y2	Z2	X3	Y3	Z3	X4	Y4	Z4	X5	Y5	Z5	X6	Y6	Z6	X7	Y7	Z7	X8	Y8	Z8	X9	Y9	Z9	X10	Y10	Z10	X11	Y11	Z11	X12	Y12	Z12	X13	Y13	Z13	X14	Y14	Z14	X15	Y15	Z15	X16	Y16	Z16	X17	Y17	Z17	X18	Y18	Z18	X19	Y19	Z19	X20	Y20	Z20	X21	Y21	Z21	X22	Y22	Z22	X23	Y23	Z23	X24	Y24	Z24	X25	Y25	Z25	X26	Y26	Z26	X27	Y27	Z27	X28	Y28	Z28	X29	Y29	Z29	X30	Y30	Z30	X31	Y31	Z31	X32	Y32	Z32	X33	Y33	Z33	X34	Y34	Z34	X35	Y35	Z35	X36	Y36	Z36	X37	Y37	Z37	X38	Y38	Z38	X39	Y39	Z39	X40	Y40	Z40	X41	Y41	Z41	X42	Y42	Z42	X43	Y43	Z43	X44	Y44	Z44	X45	Y45	Z45	X46	Y46	Z46	X47	Y47	Z47	X48	Y48	Z48	X49	Y49	Z49	X50	Y50	Z50	X51	Y51	Z51	

943	9.42000000	-182.77557	455.75348	-399.98821	-179.98594	381.69632	-380.35297	-265.67874	90.55778	-421.33739	-335.57834	55.71065	-460.06893	-167.12896	45.50767	-388.31736	-121.90109	64.47952	-442.93128	-199.26642	472.42042	-796.97659	-176.72287	410.21920	-826.01669	-265.78936	109.12614	-862.34770	-331.75922	72.24680	-810.43795	-183.29471	43.05784	-905.60473	-125.04998	61.85817	-859.43959	-201.52602	270.64884	-379.40030	-253.79705	394.76167	-386.06752	-282.76915	282.91096	-389.08918	-263.33972	432.29528	-816.95698	-282.91252	315.35586	-847.43760	-195.08577	763.55501	-387.21246	-161.09279	656.69961	-389.49192	-196.27954	620.61288	-345.30423	-278.82013	738.12169	-315.61500	-252.13463	625.46635	-335.41840	-224.37165	740.80752	-705.80325	-181.12549	619.70739	-754.94063	-336.72701	709.46993	-718.06009	-283.28561	585.34549	-762.94627	-214.56804	874.98909	-383.48347	-382.92043	937.60296	-466.28183	-212.38936	846.12746	-636.73809	-382.28772	924.16397	-573.79711	-191.96934	1338.01205	-473.74589	-142.66169	1266.02931	-323.43811	-104.27722	1297.68997	-631.31535	-80.02544	1243.84951	-449.17863	-74.95433	1248.29310	-493.22041	-161.60934	1057.74533	-202.74655	-196.28069	940.90861	-235.05750	-180.10264	983.20349	-166.95597	-74.72101	1010.52316	-205.69705	24.41746	1031.61327	-259.85683	36.36522	990.20877	-250.24902	-81.60918	1168.91294	-685.54777	-166.08159	958.34649	-662.32030	-136.47466	968.00148	-727.70974	-30.62501	964.65062	-677.72178	57.35196	950.79256	-596.79361	65.34767	916.05448	-608.66522	-299.71623	819.91747	-406.09456	-293.02260	798.94255	-605.17286	-298.01193	813.25371	-412.56414	-297.02939	792.38760	-579.49879	
944	9.43000000	-184.64144	456.30392	-399.40145	-181.78089	382.20584	-380.02953	-265.79342	90.60479	-421.14252	-335.58327	55.70681	-460.05005	-167.11913	45.49701	-388.30199	-121.77555	64.45141	-442.98354	-200.96325	472.79468	-796.49159	-178.35856	410.63745	-825.68646	-265.94733	109.08997	-862.26183	-331.87904	71.98597	-810.40612	-183.39724	43.08942	-905.66871	-125.12194	61.90684	-859.41411	-202.83463	271.01657	-378.91295	-255.65787	394.94065	-385.62142	-283.93394	283.15036	-388.53233	-265.13169	432.17773	-816.13877	-284.17170	315.32887	-846.85146	-193.23610	764.59750	-387.23159	-160.41653	656.89436	-389.70027	-196.15786	621.50535	-345.13964	-277.27475	739.97399	-315.78611	-251.97045	627.10702	-335.36692	-222.59424	741.73306	-705.71241	-181.18344	619.93386	-754.95975	-335.39674	711.83651	-717.58605	-283.86686	586.83384	-762.10995	-211.89667	876.94722	-384.17783	-381.12025	938.82229	-466.57625	-210.86900	848.54606	-637.27737	-380.52689	925.36650	-573.88849	-193.82089	1341.27651	-473.45830	-144.38878	1269.57220	-322.97811	-105.85252	1301.69707	-631.15986	-81.55728	1247.69235	-448.97097	-76.34431	1252.23718	-492.92508	-162.67205	1060.91641	-202.84708	-197.81380	944.24827	-235.20413	-180.99503	986.42412	-167.14233	-75.70965	1013.44969	-206.75574	23.01885	1034.11548	-261.62154	34.95302	992.77205	-251.92396	-82.51356	1173.21002	-685.80194	-166.89080	962.51784	-665.60920	-136.28073	972.70553	-730.31360	-31.24341	968.77836	-678.62309	55.23126	954.36808	-596.43204	63.23569	919.44752	-607.87813	-296.98321	821.50903	-406.56531	-290.86894	800.75440	-605.68605	-295.50223	815.06092	-413.14945	-294.57967	794.14815	-579.93566	
945	9.44000000	-186.42388	456.83277	-399.08726	-183.56187	382.67436	-379.67133	-265.85768	90.56177	-421.02311	-335.57894	55.72993	-460.05733	-167.11719	45.56030	-388.17506	-121.59354	64.40107	-443.10333	-202.75235	473.10384	-795.96094	-180.04589	410.99467	-825.15581	-266.15778	108.99618	-862.14018	-331.75273	71.66413	-810.53326	-183.49765	43.10940	-905.75233	-125.18994	61.92926	-859.39823	-204.04630	271.31366	-378.52895	-257.52420	395.16884	-385.26068	-285.10959	283.16906	-388.08856	-266.92307	432.08387	-815.23757	-285.59873	315.10401	-846.07219	-191.53148	765.30590	-387.35230	-159.93291	657.13229	-389.74404	-195.82036	622.40956	-344.66071	-275.62170	741.74729	-315.89362	-251.72778	628.58007	-335.31533	-220.82111	742.65481	-705.80429	-181.22466	620.22984	-755.02427	-333.99836	714.15621	-716.96721	-284.40974	588.35005	-761.34265	-209.66511	879.45182	-383.96896	-379.38862	939.91562	-466.75235	-207.94883	850.78450	-637.35869	-378.65753	926.49271	-574.06150	-195.70626	1344.37446	-473.17938	-146.03057	1272.94041	-322.68366	-107.47866	1305.45622	-630.99640	-83.06899	1251.31740	-448.74098	-77.68620	1255.92326	-492.52617	-163.73387	1063.96047	-202.85147	-199.22626	947.38722	-235.43946	-181.82390	989.40917	-167.32093	-76.75580	1016.11730	-207.75995	21.60782	1036.46296	-263.35700	33.54761	995.03765	-253.72870	-83.36056	1177.34464	-686.08863	-167.72596	966.58642	-668.69461	-136.09572	977.31027	-733.02209	-31.95705	972.74286	-679.44466	53.17547	957.74911	-596.09853	61.20557	922.77638	-607.39899	-294.33809	823.32004	-406.56749	-287.79282	802.47873	-605.66193	-292.65219	816.66225	-413.00216	-291.51464	795.77194	-580.01021	
946	9.45000000	-188.03868	457.25441	-398.96941	-185.22365	383.12870	-379.28678	-265.89184	90.49806	-420.94112	-335.57387	55.77736	-460.09993	-167.11554	45.58990	-388.06696	-121.53506	64.36210	-443.14790	-204.55525	473.21198	-795.34021	-181.75850	411.34270	-824.75044	-266.46634	108.79917	-861.97895	-331.50517	71.33339	-810.75497	-183.54578	43.07752	-905.79099	-125.26433	61.94371	-859.41252	-205.09091	271.61431	-378.41654	-259.19838	395.28458	-385.01262	-286.21792	282.90750	-387.97281	-268.68644	431.90995	-814.21849	-286.98215	314.90825	-845.30818	-189.54716	766.01345	-388.11294	-159.72454	657.42444	-389.61745	-195.30579	623.29663	-344.05700	-273.85774	743.59611	-315.78995	-251.38464	629.92778	-335.22612	-219.14285	743.53791	-705.90046	-181.27740	620.59307	-755.18811	-332.71480	716.12960	-716.01558	-284.82872	589.82650	-760.58390	-207.55380	881.89374	-383.66225	-377.63994	940.89432	-466.85079	-203.85341	852.70805	-636.55399	-376.81656	927.54597	-574.29888	-197.57940	1347.28510	-472.95225	-147.54245	1276.07622	-322.56118	-109.10660	1308.98910	-630.81340	-84.47992	1254.74028	-448.41847	-79.02374	1259.41733	-492.09657	-164.76797	1066.89047	-202.74522	-200.60550	950.39777	-235.66675	-182.59724	992.14240	-167.45481	-77.79858	1018.52543	-208.65834	20.20448	1038.65232	-265.02017	32.12644	997.09535	-255.46292	-84.14994	1181.21389	-686.43993	-168.51351	970.38342	-671.48475	-135.96368	981.73233	-735.81969	-32.73657	976.58520	-680.16566	51.07575	960.84889	-595.52467	59.11914	926.06928	-607.07429	-291.75732	825.07235	-406.26717	-284.07756	804.00656	-605.29763	-289.26656	818.24660	-412.62941	-287.98958	797.53009	-579.38310	
